{
    "asset" : {
        "generator" : "Khronos glTF Blender I/O v1.4.40",
        "version" : "2.0"
    },
    "scene" : 0,
    "scenes" : [
        {
            "name" : "Scene",
            "nodes" : [
                0
            ]
        }
    ],
    "nodes" : [
        {
            "mesh" : 0,
            "name" : "10475_Rocket_Ship_v1_L3",
            "scale" : [
                0.029999999329447746,
                0.029999999329447746,
                0.029999999329447746
            ]
        }
    ],
    "materials" : [
        {
            "doubleSided" : true,
            "name" : "10475_Rocket_Ship_v1",
            "pbrMetallicRoughness" : {
                "baseColorTexture" : {
                    "index" : 0,
                    "texCoord" : 0
                },
                "metallicFactor" : 0,
                "roughnessFactor" : 0.7573296427726746
            }
        },
        {
            "doubleSided" : true,
            "name" : "gloss",
            "pbrMetallicRoughness" : {
                "baseColorTexture" : {
                    "index" : 1,
                    "texCoord" : 0
                },
                "metallicFactor" : 0,
                "roughnessFactor" : 0.7312580943107605
            }
        }
    ],
    "meshes" : [
        {
            "name" : "10475_Rocket_Ship_v1_L3",
            "primitives" : [
                {
                    "attributes" : {
                        "POSITION" : 0,
                        "NORMAL" : 1,
                        "TEXCOORD_0" : 2
                    },
                    "indices" : 3,
                    "material" : 0
                },
                {
                    "attributes" : {
                        "POSITION" : 4,
                        "NORMAL" : 5,
                        "TEXCOORD_0" : 6
                    },
                    "indices" : 7,
                    "material" : 1
                }
            ]
        }
    ],
    "textures" : [
        {
            "sampler" : 0,
            "source" : 0
        },
        {
            "sampler" : 0,
            "source" : 0
        }
    ],
    "images" : [
        {
            "bufferView" : 4,
            "mimeType" : "image/jpeg",
            "name" : "10475_Rocket_Ship_v1_Diffuse"
        }
    ],
    "accessors" : [
        {
            "bufferView" : 0,
            "componentType" : 5126,
            "count" : 27418,
            "max" : [
                112.73919677734375,
                416.7923889160156,
                129.28050231933594
            ],
            "min" : [
                -112.73919677734375,
                0.5809000134468079,
                -69.64720153808594
            ],
            "type" : "VEC3"
        },
        {
            "bufferView" : 1,
            "componentType" : 5126,
            "count" : 27418,
            "type" : "VEC3"
        },
        {
            "bufferView" : 2,
            "componentType" : 5126,
            "count" : 27418,
            "type" : "VEC2"
        },
        {
            "bufferView" : 3,
            "componentType" : 5123,
            "count" : 145776,
            "type" : "SCALAR"
        },
        {
            "bufferView" : 5,
            "componentType" : 5126,
            "count" : 4923,
            "max" : [
                60.863800048828125,
                254.70570373535156,
                75.10790252685547
            ],
            "min" : [
                -60.863800048828125,
                151.12269592285156,
                -10.129599571228027
            ],
            "type" : "VEC3"
        },
        {
            "bufferView" : 6,
            "componentType" : 5126,
            "count" : 4923,
            "type" : "VEC3"
        },
        {
            "bufferView" : 7,
            "componentType" : 5126,
            "count" : 4923,
            "type" : "VEC2"
        },
        {
            "bufferView" : 8,
            "componentType" : 5123,
            "count" : 28464,
            "type" : "SCALAR"
        }
    ],
    "bufferViews" : [
        {
            "buffer" : 0,
            "byteLength" : 329016,
            "byteOffset" : 0
        },
        {
            "buffer" : 0,
            "byteLength" : 329016,
            "byteOffset" : 329016
        },
        {
            "buffer" : 0,
            "byteLength" : 219344,
            "byteOffset" : 658032
        },
        {
            "buffer" : 0,
            "byteLength" : 291552,
            "byteOffset" : 877376
        },
        {
            "buffer" : 0,
            "byteLength" : 636132,
            "byteOffset" : 1168928
        },
        {
            "buffer" : 0,
            "byteLength" : 59076,
            "byteOffset" : 1805060
        },
        {
            "buffer" : 0,
            "byteLength" : 59076,
            "byteOffset" : 1864136
        },
        {
            "buffer" : 0,
            "byteLength" : 39384,
            "byteOffset" : 1923212
        },
        {
            "buffer" : 0,
            "byteLength" : 56928,
            "byteOffset" : 1962596
        }
    ],
    "samplers" : [
        {
            "magFilter" : 9729,
            "minFilter" : 9986
        }
    ],
    "buffers" : [
        {
            "byteLength" : 2019524,
            "uri" : "data:application/octet-stream;base64,"
        }
    ]
}
